<mxfile host="app.diagrams.net" modified="2022-08-06T02:14:55.307Z" agent="5.0 (Windows NT 10.0; Win64; x64) AppleWebKit/537.36 (KHTML, like Gecko) Chrome/103.0.0.0 Safari/537.36" etag="iD6Cuxe3YYcwH3gBrb5H" version="20.2.3" type="github">
  <diagram id="kgpKYQtTHZ0yAKxKKP6v" name="Page-1">
    <mxGraphModel dx="990" dy="581" grid="0" gridSize="10" guides="1" tooltips="1" connect="1" arrows="1" fold="1" page="0" pageScale="1" pageWidth="850" pageHeight="1100" math="0" shadow="0">
      <root>
        <mxCell id="0" />
        <mxCell id="1" parent="0" />
        <mxCell id="3nuBFxr9cyL0pnOWT2aG-1" value="client" style="shape=umlLifeline;perimeter=lifelinePerimeter;container=1;collapsible=0;recursiveResize=0;rounded=0;shadow=0;strokeWidth=1;" parent="1" vertex="1">
          <mxGeometry x="120" y="80" width="100" height="517" as="geometry" />
        </mxCell>
        <mxCell id="3nuBFxr9cyL0pnOWT2aG-4" value="" style="points=[];perimeter=orthogonalPerimeter;rounded=0;shadow=0;strokeWidth=1;" parent="3nuBFxr9cyL0pnOWT2aG-1" vertex="1">
          <mxGeometry x="42" y="42" width="10" height="475" as="geometry" />
        </mxCell>
        <mxCell id="3nuBFxr9cyL0pnOWT2aG-5" value="avatar" style="shape=umlLifeline;perimeter=lifelinePerimeter;container=1;collapsible=0;recursiveResize=0;rounded=0;shadow=0;strokeWidth=1;" parent="1" vertex="1">
          <mxGeometry x="298" y="77.5" width="207" height="522" as="geometry" />
        </mxCell>
        <mxCell id="3nuBFxr9cyL0pnOWT2aG-6" value="" style="points=[];perimeter=orthogonalPerimeter;rounded=0;shadow=0;strokeWidth=1;" parent="3nuBFxr9cyL0pnOWT2aG-5" vertex="1">
          <mxGeometry x="98.5" y="76.5" width="10" height="428" as="geometry" />
        </mxCell>
        <mxCell id="c57LuR6uQ035VPGmdFLY-44" value="" style="verticalAlign=bottom;endArrow=block;shadow=0;strokeWidth=1;exitX=0.524;exitY=0.61;exitDx=0;exitDy=0;exitPerimeter=0;" edge="1" parent="3nuBFxr9cyL0pnOWT2aG-5">
          <mxGeometry relative="1" as="geometry">
            <mxPoint x="-117.59999999999991" y="370.37" as="sourcePoint" />
            <mxPoint x="346" y="368" as="targetPoint" />
          </mxGeometry>
        </mxCell>
        <mxCell id="c57LuR6uQ035VPGmdFLY-47" value="" style="verticalAlign=bottom;endArrow=block;shadow=0;strokeWidth=1;exitX=0.524;exitY=0.61;exitDx=0;exitDy=0;exitPerimeter=0;" edge="1" parent="3nuBFxr9cyL0pnOWT2aG-5">
          <mxGeometry relative="1" as="geometry">
            <mxPoint x="-118.20999999999992" y="355.3699999999999" as="sourcePoint" />
            <mxPoint x="345.38999999999976" y="353" as="targetPoint" />
          </mxGeometry>
        </mxCell>
        <mxCell id="c57LuR6uQ035VPGmdFLY-48" value="" style="verticalAlign=bottom;endArrow=block;shadow=0;strokeWidth=1;exitX=0.524;exitY=0.61;exitDx=0;exitDy=0;exitPerimeter=0;" edge="1" parent="3nuBFxr9cyL0pnOWT2aG-5">
          <mxGeometry relative="1" as="geometry">
            <mxPoint x="341.0400000000001" y="402.3699999999999" as="sourcePoint" />
            <mxPoint x="-113.85" y="402" as="targetPoint" />
          </mxGeometry>
        </mxCell>
        <mxCell id="c57LuR6uQ035VPGmdFLY-26" value="entity_msg" style="text;html=1;align=center;verticalAlign=middle;resizable=0;points=[];autosize=1;strokeColor=none;fillColor=none;fontSize=8;" vertex="1" parent="3nuBFxr9cyL0pnOWT2aG-5">
          <mxGeometry x="169" y="401" width="76" height="26" as="geometry" />
        </mxCell>
        <mxCell id="c57LuR6uQ035VPGmdFLY-40" value="register aoi observer(entity)" style="text;html=1;align=center;verticalAlign=middle;resizable=0;points=[];autosize=1;strokeColor=none;fillColor=none;fontSize=8;" vertex="1" parent="3nuBFxr9cyL0pnOWT2aG-5">
          <mxGeometry x="102" y="287" width="164" height="26" as="geometry" />
        </mxCell>
        <mxCell id="3nuBFxr9cyL0pnOWT2aG-8" value="" style="verticalAlign=bottom;endArrow=block;entryX=0;entryY=0;shadow=0;strokeWidth=1;" parent="1" target="3nuBFxr9cyL0pnOWT2aG-6" edge="1">
          <mxGeometry relative="1" as="geometry">
            <mxPoint x="175" y="160.0000000000001" as="sourcePoint" />
          </mxGeometry>
        </mxCell>
        <mxCell id="3nuBFxr9cyL0pnOWT2aG-9" value="createEntity" style="verticalAlign=bottom;endArrow=block;shadow=0;strokeWidth=1;" parent="1" source="3nuBFxr9cyL0pnOWT2aG-6" target="3nuBFxr9cyL0pnOWT2aG-1" edge="1">
          <mxGeometry relative="1" as="geometry">
            <mxPoint x="240" y="200" as="sourcePoint" />
            <Array as="points">
              <mxPoint x="289" y="192" />
            </Array>
          </mxGeometry>
        </mxCell>
        <mxCell id="c57LuR6uQ035VPGmdFLY-1" value="slg_world" style="shape=umlLifeline;perimeter=lifelinePerimeter;container=1;collapsible=0;recursiveResize=0;rounded=0;shadow=0;strokeWidth=1;" vertex="1" parent="1">
          <mxGeometry x="562" y="78" width="180" height="511" as="geometry" />
        </mxCell>
        <mxCell id="c57LuR6uQ035VPGmdFLY-2" value="" style="points=[];perimeter=orthogonalPerimeter;rounded=0;shadow=0;strokeWidth=1;" vertex="1" parent="c57LuR6uQ035VPGmdFLY-1">
          <mxGeometry x="82" y="73" width="10" height="431.5" as="geometry" />
        </mxCell>
        <mxCell id="c57LuR6uQ035VPGmdFLY-8" value="" style="verticalAlign=bottom;endArrow=block;shadow=0;strokeWidth=1;" edge="1" parent="c57LuR6uQ035VPGmdFLY-1">
          <mxGeometry relative="1" as="geometry">
            <mxPoint x="-131" y="229.0000000000001" as="sourcePoint" />
            <mxPoint x="68" y="229" as="targetPoint" />
          </mxGeometry>
        </mxCell>
        <mxCell id="c57LuR6uQ035VPGmdFLY-9" value="update_data(entity)" style="text;html=1;align=center;verticalAlign=middle;resizable=0;points=[];autosize=1;strokeColor=none;fillColor=none;" vertex="1" parent="c57LuR6uQ035VPGmdFLY-1">
          <mxGeometry x="-111" y="207" width="121" height="26" as="geometry" />
        </mxCell>
        <mxCell id="c57LuR6uQ035VPGmdFLY-12" value="" style="verticalAlign=bottom;endArrow=block;shadow=0;strokeWidth=1;" edge="1" parent="c57LuR6uQ035VPGmdFLY-1" target="3nuBFxr9cyL0pnOWT2aG-1">
          <mxGeometry x="-0.093" y="-20" relative="1" as="geometry">
            <mxPoint x="-146" y="210" as="sourcePoint" />
            <mxPoint x="-318" y="210" as="targetPoint" />
            <Array as="points">
              <mxPoint x="-232.93" y="210" />
            </Array>
            <mxPoint as="offset" />
          </mxGeometry>
        </mxCell>
        <mxCell id="c57LuR6uQ035VPGmdFLY-14" value="slg_update_to_avatar(entity)" style="verticalAlign=bottom;endArrow=block;shadow=0;strokeWidth=1;labelBackgroundColor=none;" edge="1" parent="c57LuR6uQ035VPGmdFLY-1">
          <mxGeometry x="0.0971" relative="1" as="geometry">
            <mxPoint x="72" y="260" as="sourcePoint" />
            <mxPoint x="-134" y="260" as="targetPoint" />
            <Array as="points">
              <mxPoint x="-14.930000000000007" y="260" />
            </Array>
            <mxPoint as="offset" />
          </mxGeometry>
        </mxCell>
        <mxCell id="c57LuR6uQ035VPGmdFLY-36" value="1.销毁通信的entity&lt;br&gt;&lt;div style=&quot;&quot;&gt;&lt;span style=&quot;background-color: initial;&quot;&gt;2.注销aoi视野&lt;/span&gt;&lt;/div&gt;" style="text;html=1;align=left;verticalAlign=middle;resizable=0;points=[];autosize=1;strokeColor=none;fillColor=none;fontSize=8;" vertex="1" parent="c57LuR6uQ035VPGmdFLY-1">
          <mxGeometry x="102" y="457" width="117" height="41" as="geometry" />
        </mxCell>
        <mxCell id="c57LuR6uQ035VPGmdFLY-52" value="" style="verticalAlign=bottom;endArrow=block;shadow=0;strokeWidth=1;exitX=0.524;exitY=0.61;exitDx=0;exitDy=0;exitPerimeter=0;" edge="1" parent="c57LuR6uQ035VPGmdFLY-1">
          <mxGeometry relative="1" as="geometry">
            <mxPoint x="72.88999999999999" y="331.3699999999999" as="sourcePoint" />
            <mxPoint x="-381.9999999999999" y="331" as="targetPoint" />
          </mxGeometry>
        </mxCell>
        <mxCell id="c57LuR6uQ035VPGmdFLY-51" value="注册slg视野" style="text;html=1;align=center;verticalAlign=middle;resizable=0;points=[];autosize=1;strokeColor=none;fillColor=none;fontSize=8;" vertex="1" parent="c57LuR6uQ035VPGmdFLY-1">
          <mxGeometry x="98" y="302" width="81" height="26" as="geometry" />
        </mxCell>
        <mxCell id="c57LuR6uQ035VPGmdFLY-3" value="login" style="text;html=1;align=center;verticalAlign=middle;resizable=0;points=[];autosize=1;strokeColor=none;fillColor=none;" vertex="1" parent="1">
          <mxGeometry x="233" y="138" width="43" height="26" as="geometry" />
        </mxCell>
        <mxCell id="c57LuR6uQ035VPGmdFLY-4" value="" style="verticalAlign=bottom;endArrow=block;shadow=0;strokeWidth=1;" edge="1" parent="1">
          <mxGeometry relative="1" as="geometry">
            <mxPoint x="428" y="219.0000000000001" as="sourcePoint" />
            <mxPoint x="629" y="219" as="targetPoint" />
          </mxGeometry>
        </mxCell>
        <mxCell id="c57LuR6uQ035VPGmdFLY-6" value="register_avatar(service)" style="text;html=1;align=center;verticalAlign=middle;resizable=0;points=[];autosize=1;strokeColor=none;fillColor=none;" vertex="1" parent="1">
          <mxGeometry x="436" y="197" width="144" height="26" as="geometry" />
        </mxCell>
        <mxCell id="c57LuR6uQ035VPGmdFLY-7" value="callback" style="verticalAlign=bottom;endArrow=block;shadow=0;strokeWidth=1;labelBackgroundColor=none;" edge="1" parent="1" source="c57LuR6uQ035VPGmdFLY-2">
          <mxGeometry x="0.0971" relative="1" as="geometry">
            <mxPoint x="531.0699999999999" y="247" as="sourcePoint" />
            <mxPoint x="420" y="245" as="targetPoint" />
            <Array as="points">
              <mxPoint x="475.07" y="247" />
            </Array>
            <mxPoint as="offset" />
          </mxGeometry>
        </mxCell>
        <mxCell id="c57LuR6uQ035VPGmdFLY-11" value="&lt;font style=&quot;font-size: 8px;&quot;&gt;1.如果没有avatar，则创建 &lt;br&gt;&lt;div style=&quot;&quot;&gt;&lt;span style=&quot;background-color: initial;&quot;&gt;2.创建通信的entity，与对应avatar通信（entity）&lt;/span&gt;&lt;/div&gt;&lt;div style=&quot;&quot;&gt;&lt;span style=&quot;background-color: initial;&quot;&gt;3.返回slg_world中slg_avatar数据，给客户端初始化&lt;/span&gt;&lt;/div&gt;&lt;/font&gt;" style="text;html=1;align=left;verticalAlign=middle;resizable=0;points=[];autosize=1;strokeColor=none;fillColor=none;fontSize=7;" vertex="1" parent="1">
          <mxGeometry x="660" y="206" width="290" height="55" as="geometry" />
        </mxCell>
        <mxCell id="c57LuR6uQ035VPGmdFLY-13" value="init_client_slg(entity)" style="text;html=1;align=center;verticalAlign=middle;resizable=0;points=[];autosize=1;strokeColor=none;fillColor=none;fontSize=8;" vertex="1" parent="1">
          <mxGeometry x="199" y="266" width="127" height="26" as="geometry" />
        </mxCell>
        <mxCell id="c57LuR6uQ035VPGmdFLY-39" value="" style="verticalAlign=bottom;endArrow=block;shadow=0;strokeWidth=1;exitX=0.524;exitY=0.61;exitDx=0;exitDy=0;exitPerimeter=0;" edge="1" parent="1" source="3nuBFxr9cyL0pnOWT2aG-1">
          <mxGeometry relative="1" as="geometry">
            <mxPoint x="356" y="378.0000000000001" as="sourcePoint" />
            <mxPoint x="636" y="393" as="targetPoint" />
          </mxGeometry>
        </mxCell>
        <mxCell id="c57LuR6uQ035VPGmdFLY-34" value="" style="verticalAlign=bottom;endArrow=block;shadow=0;strokeWidth=1;" edge="1" parent="1">
          <mxGeometry relative="1" as="geometry">
            <mxPoint x="435" y="573.0000000000001" as="sourcePoint" />
            <mxPoint x="636" y="573" as="targetPoint" />
          </mxGeometry>
        </mxCell>
        <mxCell id="c57LuR6uQ035VPGmdFLY-35" value="on_register_avatar(service)" style="text;html=1;align=center;verticalAlign=middle;resizable=0;points=[];autosize=1;strokeColor=none;fillColor=none;" vertex="1" parent="1">
          <mxGeometry x="433" y="551" width="164" height="26" as="geometry" />
        </mxCell>
        <mxCell id="c57LuR6uQ035VPGmdFLY-31" value="" style="endArrow=classic;html=1;rounded=0;labelBackgroundColor=none;fontSize=8;" edge="1" parent="1">
          <mxGeometry width="50" height="50" relative="1" as="geometry">
            <mxPoint x="203.00034482758628" y="538" as="sourcePoint" />
            <mxPoint x="376.19" y="538" as="targetPoint" />
          </mxGeometry>
        </mxCell>
        <mxCell id="c57LuR6uQ035VPGmdFLY-32" value="login out" style="text;html=1;align=center;verticalAlign=middle;resizable=0;points=[];autosize=1;strokeColor=none;fillColor=none;fontSize=8;" vertex="1" parent="1">
          <mxGeometry x="244.19" y="512" width="63" height="26" as="geometry" />
        </mxCell>
        <mxCell id="c57LuR6uQ035VPGmdFLY-45" value="" style="verticalAlign=bottom;endArrow=block;shadow=0;strokeWidth=1;exitX=0.524;exitY=0.61;exitDx=0;exitDy=0;exitPerimeter=0;" edge="1" parent="1">
          <mxGeometry relative="1" as="geometry">
            <mxPoint x="638.8900000000001" y="468.3699999999999" as="sourcePoint" />
            <mxPoint x="184" y="468" as="targetPoint" />
          </mxGeometry>
        </mxCell>
        <mxCell id="c57LuR6uQ035VPGmdFLY-49" value="同步avatar数据至slg_avatar" style="text;html=1;align=center;verticalAlign=middle;resizable=0;points=[];autosize=1;strokeColor=none;fillColor=none;fontSize=8;" vertex="1" parent="1">
          <mxGeometry x="656" y="297" width="167" height="26" as="geometry" />
        </mxCell>
        <mxCell id="c57LuR6uQ035VPGmdFLY-50" value="客户端与slg_avatar通信" style="text;html=1;align=center;verticalAlign=middle;resizable=0;points=[];autosize=1;strokeColor=none;fillColor=none;fontSize=8;" vertex="1" parent="1">
          <mxGeometry x="657" y="437" width="145" height="26" as="geometry" />
        </mxCell>
        <mxCell id="c57LuR6uQ035VPGmdFLY-53" value="&lt;div style=&quot;text-align: left;&quot;&gt;&lt;span style=&quot;background-color: initial;&quot;&gt;1.avatar与slg_avatar通信&lt;/span&gt;&lt;/div&gt;&lt;div style=&quot;text-align: left;&quot;&gt;&lt;span style=&quot;background-color: initial;&quot;&gt;2.avatar与slg_avatar数据同步（例如道具使用、士兵）&lt;/span&gt;&lt;/div&gt;" style="text;html=1;align=center;verticalAlign=middle;resizable=0;points=[];autosize=1;strokeColor=none;fillColor=none;fontSize=8;" vertex="1" parent="1">
          <mxGeometry x="150" y="656" width="309" height="41" as="geometry" />
        </mxCell>
      </root>
    </mxGraphModel>
  </diagram>
</mxfile>
